# Simple Pillow Model
mtllib pillow.mtl
o Pillow
v -0.500000 -0.150000 0.500000
v 0.500000 -0.150000 0.500000
v -0.500000 0.150000 0.500000
v 0.500000 0.150000 0.500000
v -0.500000 0.150000 -0.500000
v 0.500000 0.150000 -0.500000
v -0.500000 -0.150000 -0.500000
v 0.500000 -0.150000 -0.500000
vt 0.000000 0.000000
vt 1.000000 0.000000
vt 0.000000 1.000000
vt 1.000000 1.000000
vn 0.0000 0.0000 1.0000
vn 0.0000 1.0000 0.0000
vn 0.0000 0.0000 -1.0000
vn 0.0000 -1.0000 0.0000
vn 1.0000 0.0000 0.0000
vn -1.0000 0.0000 0.0000
usemtl PillowMat
s off
f 1/1/1 2/2/1 4/4/1 3/3/1
f 3/1/2 4/2/2 6/4/2 5/3/2
f 5/1/3 6/2/3 8/4/3 7/3/3
f 7/1/4 8/2/4 2/4/4 1/3/4
f 2/1/5 8/2/5 6/4/5 4/3/5
f 7/1/6 1/2/6 3/4/6 5/3/6